<svg width="21" height="19" viewBox="0 0 21 19" fill="none" xmlns="http://www.w3.org/2000/svg">
<path fill-rule="evenodd" clip-rule="evenodd" d="M9.50126 0H11.4964C11.4964 4.69259 15.5367 8.53199 20.4748 8.53199V10.428C15.5367 10.428 11.4964 14.2674 11.4964 18.96H9.50126C9.50126 14.2674 5.46102 10.428 0.522949 10.428V8.53199C5.46102 8.53199 9.50126 4.69259 9.50126 0Z" fill="white"/>
<path fill-rule="evenodd" clip-rule="evenodd" d="M16.4224 2.59973L17.7389 3.85081C14.481 6.94687 14.481 12.0132 17.739 15.1092L16.4224 16.3604C13.1644 13.2643 7.83307 13.2643 4.57504 16.3604L3.25842 15.1092C6.51645 12.0132 6.51645 6.94687 3.25852 3.85081L4.57504 2.59973C7.83307 5.69571 13.1644 5.69571 16.4224 2.59973Z" fill="white"/>
</svg>
