<svg width="40" height="44" viewBox="0 0 40 44" fill="none" xmlns="http://www.w3.org/2000/svg">
<path d="M6.27061 13.1291L10.4571 13.0964V10.0511L9.6967 10.0041L9.56172 10H5.70753L5.17375 10.0389L4.6792 10.157L4.23256 10.3546L3.84608 10.6208L3.52624 10.9405L3.27061 11.2968L3.07378 11.672L2.92516 12.0565L2.7335 12.8277L2.63211 13.5708L2.60027 13.9201L2.56918 14.3155L2.54487 14.6084L2.51849 14.8605L2.40676 15.9123L2.32765 16.94L2.26409 17.7632L2.17942 18.66L1.93239 20.9381L1.68331 23.2357L1.59655 24.1548L1.53035 25.0133L1.4771 25.7351L1.40699 26.5557L1.23171 28.3804L1.09807 29.6803L0.822738 32.277L0.690091 33.5542L0.512812 35.3163L0.312029 37.3782L0.206337 38.5129L0.11435 39.5549L0.0711741 40.0804L0.0231911 40.7414L0.00665063 41.0375L0 41.2726L0.044843 41.756L0.178795 42.2174L0.301933 42.4874L0.545307 42.872L0.838416 43.2058L1.17141 43.4875L1.5383 43.7141L1.80518 43.8346L2.21955 43.956L2.65629 44H37.344L37.7431 43.9617L38.119 43.8576L38.5965 43.6287C38.8134 43.4984 39.0139 43.3401 39.1932 43.16C39.3738 42.9786 39.533 42.7751 39.6621 42.553L39.8666 42.1142L39.9701 41.7194L39.9951 41.5104L39.9998 41.4036L40 41.3187L39.9909 40.9935L39.9701 40.6002L39.9177 39.8613L39.7917 38.4001L39.6626 37.0461L39.5186 35.6032L39.0605 31.1488L38.9374 29.9093L38.8663 29.1204L38.7911 28.2784L38.7006 27.376L38.5998 26.4319L38.3946 24.5567L38.2024 22.6886L38.1267 21.8351L38.0715 21.0637L37.8781 19.0579L37.7543 17.9583L37.6726 17.0223L37.6271 16.3898L37.5502 15.4495L37.4476 14.3667L37.3248 13.3057L37.2662 12.8925L37.2307 12.6724L37.1612 12.3108L37.1182 12.1319L37.0867 12.0223L37.0226 11.8448L36.9989 11.7915L36.9365 11.6612L36.7958 11.4093L36.4497 10.9466L36.0175 10.5542L35.7704 10.3911L35.5043 10.2535L34.9234 10.0644L34.2928 10H29.5012V13.0569L30.251 13.1132L30.5945 13.1309L31.0032 13.1407L31.8487 13.1451L32.7726 13.1388L33.4729 13.1307L33.7664 13.129L34.0326 13.1324L34.2068 13.1397L34.2623 13.144L34.2693 13.1979L34.2899 13.411L34.3115 13.7049L34.3421 14.1403L34.3781 14.5798L34.5007 15.6643L34.6194 16.6447L34.7289 17.7376L34.8318 18.9052L34.9316 20.1121L35.1359 22.5051L35.2478 23.6241L35.3721 24.6495L35.4844 25.6707L35.5814 26.8619L36.4597 35.833L36.5406 36.6893L36.6385 37.5352L36.6791 37.9292L36.6955 38.1205L36.7124 38.3325L36.7808 39.176L36.8684 40.0385L36.9181 40.422L36.9498 40.6485L36.9784 40.8955L36.9821 40.9523L36.9424 40.9529H3.05959L3.07291 40.7366L3.10985 40.2293L3.16056 39.6093L3.293 38.125L3.45102 36.4598L3.76707 33.2749L3.95674 31.4194L5.71324 13.4417L5.74046 13.1358L5.78345 13.1333L6.27061 13.1291Z" fill="white"/>
<path d="M25.9357 9.5674L25.9892 10.8531L25.9937 12.2051L25.9754 13.5662L25.9629 14.8856L25.9582 15.1718L25.9489 15.5194L25.9457 15.8572L25.9608 16.2124L26.0236 17H28.9783L28.9991 16.1619L29 16.0902V9.98136L28.9954 9.65582L28.9897 9.49363L28.9842 9.37709L28.9547 8.958L28.8508 8.13062C28.7625 7.58835 28.6351 7.0534 28.4691 6.53252C28.3052 6.01781 28.1036 5.51685 27.8658 5.03647C27.5827 4.4646 27.2482 3.92187 26.866 3.42076C26.5479 3.00369 26.1968 2.61545 25.8166 2.26336C25.4334 1.90857 25.0207 1.59049 24.5842 1.31558L24.2492 1.11575L23.8326 0.895727L22.7636 0.44759L21.6749 0.149613L20.5744 0.00163213L19.5118 0C19.0607 0.0297774 18.6361 0.0909856 18.2176 0.183196C17.7932 0.276675 17.3749 0.40202 16.9662 0.556006L16.354 0.810836L16.0511 0.955303L15.9579 1.00262L15.6779 1.16037L15.1654 1.50383L14.7194 1.84756L14.6066 1.93941L14.4812 2.04431L14.2548 2.24301L13.9461 2.53958L13.4839 3.02506C13.1944 3.33448 12.93 3.67076 12.6918 4.02703C12.4524 4.38508 12.2394 4.7633 12.0522 5.1556C11.8635 5.55116 11.701 5.96104 11.5639 6.38037C11.4256 6.80322 11.3132 7.23567 11.226 7.67393C11.1383 8.11497 11.0763 8.56185 11.0396 9.01112L11.0099 9.49465L11.0063 9.59208L11 9.98136V16.0902L11.0009 16.1619L11.0217 17H13.9792L14.0382 16.2076L14.0515 15.8813L14.0492 15.5708L14.0411 15.2366L14.0372 14.9717L14.0268 13.8595L14.0071 12.5059L14.0045 11.2839L14.0349 10.0891L14.09 9.24195L14.1511 8.67365L14.2318 8.15317L14.2783 7.92148L14.3328 7.6918L14.3875 7.49521L14.4517 7.30196L14.6702 6.77398L14.9317 6.26904L15.245 5.77492L15.5983 5.3131C15.8451 5.01886 16.117 4.74871 16.4099 4.50806C16.6996 4.27 17.0099 4.06082 17.3371 3.88698L17.8379 3.6542L18.0331 3.58011L18.1497 3.53914L19.0439 3.29449L19.4651 3.22895L19.8754 3.20008L20.2843 3.2069L20.6996 3.25L21.5782 3.45087L21.8111 3.52593L21.9313 3.56774L22.1522 3.65182C22.493 3.78989 22.8208 3.96462 23.1306 4.17038C23.4429 4.37781 23.7368 4.61675 24.0079 4.88253C24.2807 5.14998 24.5304 5.4446 24.7526 5.76135C24.9759 6.07947 25.1715 6.41992 25.3351 6.77738L25.4526 7.05066L25.5067 7.18967L25.5328 7.2606L25.5988 7.46066L25.7158 7.91076L25.8106 8.41784L25.8833 8.97292L25.9357 9.5674Z" fill="white"/>
<path d="M15 10L15.0008 13H25V10H15Z" fill="white"/>
</svg>
