<svg width="32" height="35" viewBox="0 0 32 35" fill="none" xmlns="http://www.w3.org/2000/svg">
<path fill-rule="evenodd" clip-rule="evenodd" d="M4.5521 9.36507L7.36879 9.34316V8.13701C7.34556 8.13558 7.32167 8.13483 7.29711 8.13483H4.08373C2.08245 8.13483 2.24283 10.3762 2.09442 11.5723C2.02299 12.1474 1.97581 12.7026 1.93909 13.2593C1.81063 15.2047 1.40275 18.018 1.27435 19.9634C1.15847 21.7175 0.802994 24.844 0.613858 26.6717C0.522724 27.5513 0 32.6461 0 33.4277C0 34.2978 0.822267 35 1.53978 35H30.4603C31.1839 35 32 34.2362 32 33.4961C32 32.114 31.2109 25.2631 31.0569 23.3848C30.8965 21.4269 30.5042 18.523 30.3933 16.6796C30.3269 15.5765 30.1331 14.4207 30.0609 13.3277C30.0171 12.6633 29.7962 9.7581 29.5704 9.24855C29.28 8.59323 28.71 8.13483 27.9163 8.13483H24.5963V9.35377C25.2304 9.4012 27.03 9.36607 27.3808 9.36514C28.9168 9.36116 28.4051 9.47973 28.7581 12.0603C29.0429 14.1417 29.1999 17.4404 29.4846 19.5217C29.5714 20.156 29.6107 20.7554 29.6627 21.3905L30.3956 28.8453C30.4346 29.4345 30.5408 30.1191 30.5883 30.6993C30.6404 31.3339 30.6794 31.9346 30.7665 32.5682C30.8556 33.2174 31.0021 33.8379 30.1255 33.8379H1.87446C1.54939 33.8379 1.30377 33.7254 1.19914 33.4977C1.10922 33.3021 1.86547 26.011 1.95271 25.1678L3.41558 10.2553C3.46629 9.35924 3.67257 9.36104 4.5521 9.36507ZM21.6656 6.8658C21.7676 8.23695 21.6904 9.81118 21.6904 11.1425C21.6904 11.4742 21.6606 11.8344 21.6863 12.1383H22.8949C22.8952 12.1255 22.8954 12.1126 22.8954 12.0996V7.2461C22.8954 7.1189 22.8924 6.99207 22.8864 6.8658C22.7613 4.2387 21.3461 1.84266 19.1037 0.727266C18.237 0.296183 17.3416 0.0562444 16.4416 0H15.6101C14.7095 0.0561203 13.812 0.293576 12.9417 0.705228C12.572 0.880045 12.2123 1.13979 11.9162 1.36706C11.5289 1.66449 11.3425 1.8534 10.9953 2.20402C9.84404 3.36622 9.1951 5.09956 9.11339 6.8658C9.10749 6.99244 9.10457 7.11927 9.10457 7.2461V12.0996C9.10457 12.1126 9.10475 12.1255 9.10512 12.1383H10.3127C10.335 11.8547 10.3097 11.5224 10.3097 11.2109C10.3096 9.95347 10.2297 8.29252 10.3345 6.8658C10.3914 6.09191 10.5026 5.38686 10.7104 4.8526C11.308 3.31662 12.5577 2.05609 14.0826 1.52841C15.4187 1.0661 16.5114 1.04884 17.8671 1.51152C19.3899 2.03126 20.6652 3.2551 21.2702 4.80406C21.4916 5.37079 21.6076 6.08539 21.6656 6.8658ZM12.0499 8.13483L12.0502 9.36526H19.9151V8.13483H12.0499Z" fill="white"/>
<path fill-rule="evenodd" clip-rule="evenodd" d="M9 22.7H1.5V21.3H9C12.465 21.3 15.3 18.465 15.3 15H16.7C16.7 18.465 19.535 21.3 23 21.3V22.7C19.535 22.7 16.7 25.535 16.7 29H15.3C15.3 25.535 12.465 22.7 9 22.7Z" fill="white"/>
</svg>
