<svg width="42" height="174" viewBox="0 0 42 174" fill="none" xmlns="http://www.w3.org/2000/svg">
<path d="M41 86.8176C41.0002 101.409 33.5664 110.945 24.7168 117.459C8.63746 129.294 5.81225 140.733 3.83186 149.056C1.85147 157.38 1 172.311 1 174L1.00001 86.8176L1.00001 -3.58434e-06C1.00001 28.4528 8.95075 42.8656 26.269 57.2704C35.0401 64.566 40.9998 72.2264 41 86.8176Z" fill="#FFBA80" stroke="#FFBA80"/>
<path fill-rule="evenodd" clip-rule="evenodd" d="M13.7075 77.0002C13.6914 81.2625 14.6569 84.8814 19.1979 87.0002C14.6569 89.119 13.7075 92.7214 13.7075 97.0002H15.8539C15.8539 92.0502 19.8051 88.0002 24.6343 88.0002V86.0002C19.8051 86.0002 15.8539 81.9502 15.8539 77.0002H13.7075Z" fill="#1F1B20"/>
</svg>
