<svg width="25" height="25" viewBox="0 0 25 25" fill="none" xmlns="http://www.w3.org/2000/svg">
<path d="M11.1592 11.2017H10.2388C10.2472 10.3468 10.5011 9.67188 11.0005 9.17676C11.5041 8.67741 12.1769 8.42773 13.019 8.42773C13.8485 8.42773 14.5002 8.63721 14.9741 9.05615C15.4481 9.4751 15.6851 9.99561 15.6851 10.6177C15.6851 10.9139 15.6195 11.189 15.4883 11.4429C15.3613 11.6925 15.1667 11.9189 14.9043 12.1221C14.6419 12.321 14.1828 12.5495 13.5269 12.8076C12.7017 13.1377 12.2023 13.3831 12.0288 13.5439C11.8511 13.709 11.7622 13.9079 11.7622 14.1406C11.7622 14.3861 11.8807 14.6061 12.1177 14.8008C12.3589 14.9954 12.6699 15.0928 13.0508 15.0928C13.4697 15.0928 13.7913 14.987 14.0156 14.7754C14.2399 14.5596 14.3774 14.2168 14.4282 13.7471H15.355C15.3254 14.4538 15.1053 15.0039 14.6948 15.3975C14.2886 15.7868 13.7406 15.9814 13.0508 15.9814C12.3652 15.9814 11.8193 15.8037 11.4131 15.4482C11.0068 15.0928 10.8037 14.6548 10.8037 14.1343C10.8037 13.8804 10.8587 13.6413 10.9688 13.417C11.083 13.1885 11.2417 12.998 11.4448 12.8457C11.6522 12.6934 12.0394 12.5008 12.6064 12.2681C13.5205 11.8957 14.1066 11.6164 14.3647 11.4302C14.6187 11.244 14.7456 10.9774 14.7456 10.6304C14.7456 10.2622 14.589 9.95117 14.2759 9.69727C13.967 9.44336 13.5522 9.31641 13.0317 9.31641C12.397 9.31641 11.904 9.52588 11.5527 9.94482C11.3073 10.2368 11.1761 10.6558 11.1592 11.2017ZM13.0127 16.6035C13.2285 16.6035 13.4126 16.6797 13.5649 16.832C13.7173 16.9844 13.7935 17.1706 13.7935 17.3906C13.7935 17.6064 13.7173 17.7926 13.5649 17.9492C13.4126 18.1016 13.2285 18.1777 13.0127 18.1777C12.7969 18.1777 12.6128 18.1016 12.4604 17.9492C12.3081 17.7926 12.2319 17.6064 12.2319 17.3906C12.2319 17.1706 12.3081 16.9844 12.4604 16.832C12.6128 16.6797 12.7969 16.6035 13.0127 16.6035Z" fill="white"/>
<path d="M24.5 12.5C24.5 19.1274 19.1274 24.5 12.5 24.5C5.87258 24.5 0.5 19.1274 0.5 12.5C0.5 5.87258 5.87258 0.5 12.5 0.5C19.1274 0.5 24.5 5.87258 24.5 12.5Z" stroke="white"/>
</svg>
