<svg width="35" height="20" viewBox="0 0 35 20" fill="none" xmlns="http://www.w3.org/2000/svg">
<path d="M6.52922 1.45C6.22546 1.45 5.97922 1.69624 5.97922 2C5.97922 4.07749 4.20673 5.81419 2 5.81419C1.69624 5.81419 1.45 6.06044 1.45 6.36419V7.33401C1.45 7.63777 1.69624 7.88401 2 7.88401C4.20673 7.88401 5.97922 9.62072 5.97922 11.6982C5.97922 12.002 6.22546 12.2482 6.52922 12.2482H7.53571C7.83947 12.2482 8.08571 12.002 8.08571 11.6982C8.08571 9.63299 9.83732 7.90454 12.0259 7.88419C12.0372 7.88499 12.0486 7.88544 12.0601 7.88554C17.4145 7.93309 22.213 8.48754 25.6572 9.34652C27.3836 9.77708 28.7389 10.2767 29.6494 10.8084C30.5991 11.363 30.8899 11.8453 30.8899 12.1813C30.8899 12.5174 30.5991 12.9996 29.6494 13.5542C28.7389 14.0859 27.3836 14.5856 25.6572 15.0161C22.213 15.8751 17.4145 16.4295 12.0601 16.4771C11.7582 16.4798 11.5149 16.7252 11.5149 17.0271V18C11.5149 18.1461 11.5731 18.2862 11.6765 18.3893C11.7799 18.4925 11.9201 18.5503 12.0662 18.55C14.6637 18.5441 17.2732 18.4246 19.8607 18.161L19.8049 17.614L19.8607 18.161C22.0627 17.9366 24.3043 17.6075 26.4705 17.0857C27.4947 16.839 29.212 16.3895 30.6817 15.6558C31.4165 15.2889 32.1206 14.8361 32.6471 14.2764C33.1793 13.7109 33.55 13.0128 33.55 12.1813C33.55 11.3498 33.1793 10.6517 32.6471 10.0862C32.1206 9.52658 31.4165 9.0737 30.6817 8.70686C29.212 7.97313 27.4947 7.52365 26.4705 7.27694C24.3043 6.75513 22.0627 6.42604 19.8607 6.20166L19.8049 6.74882L19.8607 6.20166C17.2732 5.93803 14.6637 5.8185 12.0662 5.81264C12.0528 5.81261 12.0394 5.81307 12.0261 5.81401C9.83744 5.79378 8.08571 4.06528 8.08571 2C8.08571 1.69624 7.83947 1.45 7.53571 1.45H6.52922Z" fill="#FFBA80" stroke="#FFBA80" stroke-width="1.1" stroke-linejoin="round"/>
</svg>
