<svg width="31" height="16" viewBox="0 0 31 16" fill="none" xmlns="http://www.w3.org/2000/svg">
<path fill-rule="evenodd" clip-rule="evenodd" d="M26.4708 16H25.4643C25.4643 13.5997 23.4261 11.6358 20.9351 11.6358V11.6374C18.3535 11.6315 15.7622 11.5127 13.1951 11.2512C11.0084 11.0284 8.79283 10.7025 6.65831 10.1884C4.61789 9.69685 0 8.43695 0 5.81868C0 3.20041 4.61789 1.94051 6.65831 1.44901C8.79283 0.93481 11.0084 0.608999 13.1951 0.386183C15.7622 0.124622 18.3535 0.00581892 20.9351 0V0.972924C10.1674 1.06855 1.56007 3.20152 1.56007 5.81868C1.56007 8.43584 10.1674 10.5688 20.9351 10.6644V10.666C23.4261 10.666 25.4643 8.7021 25.4643 6.3018H26.4708C26.4708 8.7021 28.5089 10.666 31 10.666V11.6358C28.5089 11.6358 26.4708 13.5997 26.4708 16Z" fill="#FFBA80"/>
</svg>
