<svg width="25" height="13" viewBox="0 0 25 13" fill="none" xmlns="http://www.w3.org/2000/svg">
<path d="M0.5 7.05L0.5 7.55L1 7.55L12.1009 7.55C14.5766 7.55 16.5963 9.55794 16.5963 12L16.5963 12.5L17.0963 12.5L18.2064 12.5L18.7064 12.5L18.7064 12C18.7064 9.55794 20.7262 7.55 23.2018 7.55L23.7018 7.55L23.7018 7.05L23.7018 5.95L23.7018 5.45L23.2018 5.45C20.7262 5.45 18.7064 3.44206 18.7064 1L18.7064 0.5L18.2064 0.5L17.0963 0.499999L16.5963 0.499999L16.5963 0.999999C16.5963 3.44206 14.5766 5.45 12.1009 5.45L1 5.45L0.500001 5.45L0.500001 5.95L0.5 7.05Z" fill="black" stroke="black"/>
</svg>
