<svg width="23" height="13" viewBox="0 0 23 13" fill="none" xmlns="http://www.w3.org/2000/svg">
<path d="M22.25 1.0002C22.25 0.862429 22.1386 0.750687 22.0009 0.7502C19.7486 0.742044 17.6379 0.981679 15.8026 1.81579C14.0779 2.59962 12.6122 3.90114 11.5 5.97755C10.3883 3.90168 8.92661 2.60377 7.20383 1.82182C5.37078 0.98981 3.26018 0.750197 1 0.750197C0.861929 0.750197 0.75 0.862126 0.75 1.0002L0.75 3.16087C0.75 3.29894 0.861929 3.41087 1 3.41087C6.07543 3.41087 10.2 7.29203 10.2 12C10.2 12.1381 10.3119 12.25 10.45 12.25L12.55 12.25C12.6881 12.25 12.8 12.1381 12.8 12C12.8 7.29203 16.9246 3.41087 22 3.41087C22.1381 3.41087 22.25 3.29894 22.25 3.16087L22.25 1.0002Z" fill="#FFBA80" stroke="#FFBA80" stroke-width="0.5" stroke-linejoin="round"/>
</svg>
