<svg width="23" height="16" viewBox="0 0 23 16" fill="none" xmlns="http://www.w3.org/2000/svg">
<path d="M22.15 1.00025C22.15 0.91764 22.0832 0.850626 22.0007 0.850253C19.7508 0.839885 17.6513 1.14512 15.8309 2.1981C14.0821 3.20962 12.6074 4.90147 11.5 7.62568C10.393 4.90191 8.92229 3.21486 7.17553 2.20579C5.35733 1.15545 3.25793 0.850251 1 0.850251C0.917158 0.850251 0.85 0.917408 0.85 1.00025L0.85 3.7502C0.85 3.83304 0.917158 3.9002 1 3.9002C6.09122 3.9002 10.3 8.86989 10.3 15C10.3 15.0828 10.3672 15.15 10.45 15.15L12.55 15.15C12.6328 15.15 12.7 15.0828 12.7 15C12.7 8.86989 16.9088 3.9002 22 3.9002C22.0828 3.9002 22.15 3.83305 22.15 3.7502L22.15 1.00025Z" fill="#FFBA80" stroke="#FFBA80" stroke-width="0.3" stroke-linejoin="round"/>
</svg>
