<svg width="26" height="27" viewBox="0 0 26 27" fill="none" xmlns="http://www.w3.org/2000/svg">
<path fill-rule="evenodd" clip-rule="evenodd" d="M3.64896 7.22448L5.84419 7.20758V6.27712C5.82609 6.27602 5.80747 6.27544 5.78832 6.27544H3.28392C1.72419 6.27544 1.84918 8.00452 1.73352 8.92717C1.67785 9.37083 1.64108 9.79916 1.61246 10.2286C1.51234 11.7293 1.19445 13.8996 1.09438 15.4003C1.00407 16.7535 0.727024 19.1653 0.579617 20.5753C0.508591 21.2539 0.101196 25.1841 0.101196 25.7871C0.101196 26.4583 0.742044 27 1.30125 27H23.8409C24.4049 27 25.041 26.4108 25.041 25.8399C25.041 24.7737 24.4259 19.4887 24.306 18.0397C24.1809 16.5293 23.8752 14.2892 23.7887 12.8672C23.737 12.0162 23.5859 11.1246 23.5297 10.2814C23.4955 9.7688 23.3234 7.52768 23.1474 7.13459C22.9211 6.62907 22.4769 6.27544 21.8582 6.27544H19.2707V7.21577C19.765 7.25236 21.1675 7.22525 21.4409 7.22453C22.638 7.22147 22.2392 7.31294 22.5143 9.30369C22.7363 10.9093 22.8586 13.454 23.0806 15.0596C23.1482 15.5489 23.1788 16.0113 23.2193 16.5013L23.7905 22.2521C23.8209 22.7066 23.9037 23.2348 23.9407 23.6823C23.9813 24.1719 24.0117 24.6352 24.0796 25.124C24.1491 25.6249 24.2632 26.1035 23.58 26.1035H1.56209C1.30874 26.1035 1.11731 26.0167 1.03577 25.8411C0.965689 25.6902 1.55508 20.0656 1.62307 19.4151L2.76319 7.91123C2.80271 7.21998 2.96348 7.22137 3.64896 7.22448ZM16.9867 5.29647C17.0662 6.35422 17.006 7.56862 17.006 8.59568C17.006 8.85151 16.9828 9.12942 17.0028 9.36384H17.9447C17.945 9.35397 17.9451 9.34401 17.9451 9.33395V5.58985C17.9451 5.49172 17.9428 5.39388 17.9381 5.29647C17.8406 3.26985 16.7377 1.42148 14.99 0.561034C14.3145 0.228484 13.6167 0.0433886 12.9153 0H12.2672C11.5653 0.0432928 10.8658 0.226473 10.1875 0.544033C9.89937 0.678892 9.6191 0.879265 9.3883 1.05459C9.08643 1.28403 8.9412 1.42976 8.67055 1.70025C7.77332 2.5968 7.26756 3.93394 7.20387 5.29647C7.19928 5.39417 7.197 5.49201 7.197 5.58985V9.33395C7.197 9.34401 7.19715 9.35397 7.19743 9.36384H8.13859C8.15598 9.14508 8.13622 8.88867 8.13622 8.64841C8.13617 7.67839 8.07386 6.39708 8.15555 5.29647C8.1999 4.69947 8.28656 4.15558 8.44856 3.74344C8.91429 2.55854 9.88828 1.58613 11.0767 1.17906C12.118 0.822419 12.9697 0.809106 14.0262 1.16603C15.2131 1.56697 16.207 2.51108 16.6785 3.70599C16.851 4.14318 16.9415 4.69444 16.9867 5.29647ZM9.49249 6.27544L9.49273 7.22463H15.6224V6.27544H9.49249Z" fill="#FFBA80"/>
</svg>
