<svg width="31" height="30" viewBox="0 0 31 30" fill="none" xmlns="http://www.w3.org/2000/svg">
<path d="M26.9151 29.5308L27.0214 29.6367L27.1277 29.5308L29.7114 26.9586L29.8177 26.8528L29.7114 26.7469L17.94 15.0278L29.4603 3.5586L29.5666 3.45277L29.4603 3.34694L26.8208 0.719164L26.7145 0.613334L26.6082 0.719164L15.0879 12.1883L3.31655 0.469176L3.21025 0.363346L3.10394 0.469177L0.520263 3.0414L0.413962 3.14723L0.520263 3.25306L12.2916 14.9722L0.771364 26.4414L0.665062 26.5472L0.771363 26.6531L3.41084 29.2808L3.51715 29.3867L3.62345 29.2808L15.1437 17.8117L26.9151 29.5308Z" fill="#FFBA80" stroke="#FFBA80" stroke-width="0.3"/>
</svg>
