<svg width="26" height="13" viewBox="0 0 26 13" fill="none" xmlns="http://www.w3.org/2000/svg">
<path fill-rule="evenodd" clip-rule="evenodd" d="M22.1418 12.2322H21.3321C21.3321 10.3972 19.6923 8.89575 17.6883 8.89575V8.89694C15.6113 8.89249 13.5267 8.80166 11.4614 8.6017C9.70219 8.43135 7.91973 8.18226 6.20249 7.78915C4.56096 7.41339 0.845825 6.45018 0.845825 4.44847C0.845825 2.44676 4.56096 1.48355 6.20249 1.10779C7.91973 0.714676 9.70219 0.465589 11.4614 0.295243C13.5267 0.0952756 15.6113 0.00444865 17.6883 0V0.743815C9.02558 0.816921 2.10091 2.44761 2.10091 4.44847C2.10091 6.44933 9.02558 8.08002 17.6883 8.15312V8.15431C19.6923 8.15431 21.3321 6.65289 21.3321 4.81782H22.1418C22.1418 6.65289 23.7815 8.15431 25.7856 8.15431V8.89575C23.7815 8.89575 22.1418 10.3972 22.1418 12.2322Z" fill="white"/>
</svg>
