<svg width="36" height="22" viewBox="0 0 36 22" fill="none" xmlns="http://www.w3.org/2000/svg">
<path d="M5.81669 0H7.7213V0.778693C7.7213 1.10688 7.751 1.43513 7.81098 1.75789C7.86858 2.06781 7.95412 2.37272 8.06705 2.66738C8.17616 2.95198 8.31082 3.22702 8.46994 3.48751C8.62388 3.73956 8.80073 3.978 8.99894 4.19773C9.19084 4.41049 9.4028 4.60568 9.63244 4.77801C9.85591 4.9457 10.0961 5.09173 10.3493 5.21103C10.5795 5.31949 10.8204 5.40587 11.0677 5.46683C11.3175 5.52844 11.574 5.56408 11.8313 5.57309L11.9663 5.57344C13.4158 5.57719 14.8654 5.61718 16.3126 5.69871C17.7625 5.7804 19.2099 5.90378 20.6522 6.07221C21.8914 6.21691 23.1267 6.39483 24.3537 6.619C25.5908 6.84504 26.8195 7.1181 28.0312 7.45314L29.022 7.74318L30.2022 8.13929L31.4781 8.65372C31.9158 8.8494 32.3452 9.06348 32.7607 9.3021C33.1792 9.54245 33.5835 9.80771 33.9617 10.1063L34.5033 10.577L34.988 11.1007L35.4006 11.6831L35.721 12.3272L35.9274 13.0315L36 13.7857L35.9273 14.5399L35.721 15.2443L35.4006 15.8883L34.9881 16.4707L34.5033 16.9944L33.9617 17.4651L33.377 17.8885L32.7607 18.2693C32.3453 18.5079 31.9158 18.7221 31.4781 18.9178L30.2022 19.4319L29.022 19.8283L28.0312 20.1183C26.8195 20.4532 25.5908 20.7263 24.3537 20.9524C23.1267 21.1766 21.8913 21.3545 20.6522 21.4991C19.2099 21.6675 17.7625 21.791 16.3126 21.8727C14.8654 21.9542 13.4158 21.9942 11.9662 21.9979L11.1773 22V19.2056L11.9561 19.1976C13.3951 19.1829 14.8337 19.13 16.2696 19.0353L18.3149 18.871L20.2714 18.6552L22.1283 18.3909L23.8742 18.0814L25.4978 17.7303L26.9875 17.3411L28.3315 16.9177L29.5169 16.4652L30.5306 15.99L30.9686 15.7469L31.3582 15.5021L31.6979 15.2574L31.9862 15.0157L32.222 14.7801L32.406 14.5542L32.54 14.342L32.6286 14.1448L32.6781 13.9618L32.6937 13.7857L32.6781 13.6096L32.6286 13.4266L32.54 13.2294L32.406 13.0171L32.222 12.7913L31.9862 12.5557L31.6979 12.314L31.3582 12.0693L30.9686 11.8245L30.5306 11.5814L29.5169 11.1061L28.3315 10.6537L26.9875 10.2303L25.4977 9.84106L23.8742 9.48994L22.1283 9.18046L20.2714 8.91618L18.3149 8.70034L16.2696 8.53604C14.8337 8.44131 13.3951 8.38841 11.9561 8.37372L11.8729 8.37287C11.6084 8.37922 11.3445 8.41364 11.0873 8.47555C10.8331 8.53675 10.5856 8.62484 10.3493 8.73615C10.0961 8.85547 9.85591 9.00148 9.63244 9.16919C9.4028 9.34149 9.19084 9.53669 8.99894 9.74945C8.80073 9.96918 8.62388 10.2076 8.46994 10.4597C8.31082 10.7202 8.17616 10.9952 8.06705 11.2798C7.95412 11.5745 7.86858 11.8794 7.81098 12.1893C7.751 12.5121 7.7213 12.8403 7.7213 13.1685V13.9472H5.0298V13.1685C5.0298 12.8403 5.00013 12.5121 4.94015 12.1893C4.88255 11.8794 4.79701 11.5745 4.68408 11.2798C4.57497 10.9952 4.44031 10.7202 4.28119 10.4597C4.12722 10.2076 3.9504 9.96918 3.75219 9.74945C3.56027 9.53671 3.34831 9.34151 3.11868 9.16919C2.89521 9.0015 2.655 8.85547 2.40177 8.73615C2.15219 8.61855 1.88995 8.52689 1.62065 8.46543C1.34756 8.40308 1.06719 8.37176 0.786885 8.37176H0V5.57541H0.786885C1.06719 5.57541 1.34756 5.5441 1.62065 5.48177C1.88995 5.42028 2.15219 5.32863 2.40177 5.21103C2.655 5.09173 2.89521 4.9457 3.11868 4.77801C3.34831 4.60568 3.56027 4.41047 3.75219 4.19773C3.95039 3.978 4.12722 3.73956 4.28119 3.48751C4.44031 3.22702 4.57497 2.95198 4.68408 2.66738C4.79701 2.37272 4.88255 2.06781 4.94015 1.75789C5.00013 1.43513 5.0298 1.10688 5.0298 0.778693V0H5.81669Z" fill="#FFBA80"/>
</svg>
