<svg width="31" height="16" viewBox="0 0 31 16" fill="none" xmlns="http://www.w3.org/2000/svg">
<path fill-rule="evenodd" clip-rule="evenodd" d="M4.52922 0H5.53571C5.53571 2.40031 7.57386 4.36419 10.0649 4.36419V4.36264C12.6465 4.36846 15.2378 4.48726 17.8049 4.74882C19.9916 4.97164 22.2072 5.29745 24.3417 5.81165C26.3821 6.30315 31 7.56305 31 10.1813C31 12.7996 26.3821 14.0595 24.3417 14.551C22.2072 15.0652 19.9916 15.391 17.8049 15.6138C15.2378 15.8754 12.6465 15.9942 10.0649 16V15.0271C20.8326 14.9315 29.4399 12.7985 29.4399 10.1813C29.4399 7.56416 20.8326 5.43119 10.0649 5.33556V5.33401C7.57386 5.33401 5.53571 7.2979 5.53571 9.6982H4.52922C4.52922 7.2979 2.49107 5.33401 0 5.33401V4.36419C2.49107 4.36419 4.52922 2.40031 4.52922 0Z" fill="#FFBA80"/>
</svg>
